Coordinates
nRows=198
nColumns=2
inDegrees=yes
endheader
time	ankle_angle_r	
1.87488	  0.289917	
1.93738	  0.152588	
1.99987	  0.198364	
2.06237	  0.137329	
2.12486	  0.106812	
2.18736	  0.244141	
2.24986	  0.183105	
2.31235	  0.198364	
2.37485	  0.244141	
2.43734	  0.106812	
2.49984	  0.137329	
2.56234	  0.152588	
2.62483	  0.152588	
2.68733	  0.335693	
2.74982	  0.244141	
2.81232	  0.244141	
2.87482	  0.274658	
2.93731	  0.183105	
2.99981	  0.228882	
3.0623	  0.274658	
3.1248	  0.213623	
3.1873	  0.335693	
3.24979	  0.305176	
3.31229	  0.244141	
3.37478	  0.274658	
3.43728	  0.152588	
3.49978	  0.167847	
3.56227	  0.167847	
3.62477	  0.106812	
3.68726	  0.183105	
3.74976	  0.213623	
3.81226	  0.137329	
3.87475	  0.167847	
3.93725	  0.183105	
3.99974	  0.122070	
4.06224	  0.213623	
4.12474	  0.167847	
4.18723	  0.183105	
4.24973	  0.320435	
4.31222	  0.244141	
4.37472	  0.320435	
4.43722	  0.305176	
4.49971	  0.198364	
4.56221	  0.274658	
4.6247	  0.228882	
4.6872	  0.213623	
4.7497	  0.366211	
4.81219	  0.244141	
4.87469	  0.213623	
4.93718	  0.259399	
4.99968	  0.076294	
5.06218	  0.167847	
5.12467	  0.167847	
5.18717	  0.122070	
5.24966	  0.244141	
5.31216	  0.183105	
5.37466	  0.167847	
5.43715	  0.213623	
5.49965	  0.106812	
5.56214	  0.167847	
5.62464	  0.213623	
5.68714	  0.183105	
5.74963	  0.259399	
5.81213	  0.289917	
5.87462	  0.289917	
5.93712	  0.350952	
5.99962	  0.305176	
6.06211	  0.228882	
6.12461	  0.274658	
6.1871	  0.213623	
6.2496	  0.167847	
6.3121	  0.289917	
6.37459	  0.198364	
6.43709	  0.244141	
6.49958	  0.228882	
6.56208	  0.091553	
6.62458	  0.198364	
6.68707	  0.152588	
6.74957	  0.076294	
6.81206	  0.244141	
6.87456	  0.167847	
6.93706	  0.183105	
6.99955	  0.228882	
7.06205	  0.137329	
7.12454	  0.198364	
7.18704	  0.213623	
7.24954	  0.213623	
7.31203	  0.335693	
7.37453	  0.289917	
7.43702	  0.244141	
7.49952	  0.320435	
7.56202	  0.274658	
7.62451	  0.167847	
7.68701	  0.228882	
7.7495	  0.213623	
7.812	  0.167847	
7.8745	  0.244141	
7.93699	  0.213623	
7.99949	  0.228882	
8.06198	  0.183105	
8.12448	  0.106812	
8.18698	  0.167847	
8.24947	  0.122070	
8.31197	  0.106812	
8.37446	  0.228882	
8.43696	  0.183105	
8.49946	  0.213623	
8.56195	  0.274658	
8.62445	  0.152588	
8.68694	  0.198364	
8.74944	  0.228882	
8.81194	  0.198364	
8.87443	  0.350952	
8.93693	  0.274658	
8.99942	  0.289917	
9.06192	  0.350952	
9.12442	  0.213623	
9.18691	  0.213623	
9.24941	  0.183105	
9.3119	  0.167847	
9.3744	  0.228882	
9.4369	  0.228882	
9.49939	  0.137329	
9.56189	  0.198364	
9.62438	  0.167847	
9.68688	  0.122070	
9.74938	  0.167847	
9.81187	  0.122070	
9.87437	  0.152588	
9.93686	  0.244141	
9.99936	  0.183105	
10.0619	  0.244141	
10.1244	  0.320435	
10.1868	  0.183105	
10.2493	  0.244141	
10.3118	  0.228882	
10.3743	  0.228882	
10.4368	  0.335693	
10.4993	  0.305176	
10.5618	  0.274658	
10.6243	  0.320435	
10.6868	  0.183105	
10.7493	  0.198364	
10.8118	  0.167847	
10.8743	  0.122070	
10.9368	  0.274658	
10.9993	  0.228882	
11.0618	  0.152588	
11.1243	  0.198364	
11.1868	  0.122070	
11.2493	  0.122070	
11.3118	  0.167847	
11.3743	  0.106812	
11.4368	  0.137329	
11.4993	  0.259399	
11.5618	  0.213623	
11.6243	  0.289917	
11.6868	  0.305176	
11.7492	  0.137329	
11.8117	  0.259399	
11.8742	  0.228882	
11.9367	  0.183105	
11.9992	  0.335693	
12.0617	  0.305176	
12.1242	  0.289917	
12.1867	  0.350952	
12.2492	  0.198364	
12.3117	  0.244141	
12.3742	  0.259399	
12.4367	  0.213623	
12.4992	  0.335693	
12.5617	  0.305176	
12.6242	  0.274658	
12.6867	  0.335693	
12.7492	  0.228882	
12.8117	  0.244141	
12.8742	  0.289917	
12.9367	  0.213623	
12.9992	  0.289917	
13.0617	  0.244141	
13.1242	  0.167847	
13.1867	  0.183105	
13.2492	  0.213623	
13.3116	  0.091553	
13.3741	  0.167847	
13.4366	  0.122070	
13.4991	  0.137329	
13.5616	  0.244141	
13.6241	  0.198364	
13.6866	  0.183105	
13.7491	  0.289917	
13.8116	  0.152588	
13.8741	  0.259399	
13.9366	  0.244141	
13.9991	  0.167847	
14.0616	  0.320435	
14.1241	  0.289917	
14.1866	  0.289917	
